<mxfile host="app.diagrams.net" modified="2024-05-05T13:08:38.866Z" agent="Mozilla/5.0 (Windows NT 10.0; Win64; x64) AppleWebKit/537.36 (KHTML, like Gecko) Chrome/124.0.0.0 Safari/537.36 Edg/124.0.0.0" etag="MkDbZ5Hrv0pgJd__CNPM" version="24.3.1" type="github">
  <diagram name="第 1 页" id="t0DqELkXgMo1yK1vmhEP">
    <mxGraphModel dx="1181" dy="850" grid="1" gridSize="10" guides="1" tooltips="1" connect="1" arrows="1" fold="1" page="1" pageScale="1" pageWidth="827" pageHeight="1169" math="0" shadow="0">
      <root>
        <mxCell id="0" />
        <mxCell id="1" parent="0" />
        <mxCell id="w5uutKhLg4fIQeWmkBKa-1" value="" style="rounded=1;whiteSpace=wrap;html=1;fillColor=none;strokeWidth=5;dashed=1;dashPattern=1 1;fontFamily=宋体;" vertex="1" parent="1">
          <mxGeometry x="30" y="190" width="870" height="130" as="geometry" />
        </mxCell>
        <mxCell id="w5uutKhLg4fIQeWmkBKa-2" value="数据层" style="text;html=1;align=center;verticalAlign=middle;whiteSpace=wrap;rounded=0;fontFamily=宋体;fontSize=33;" vertex="1" parent="1">
          <mxGeometry x="40" y="210" width="120" height="20" as="geometry" />
        </mxCell>
        <mxCell id="w5uutKhLg4fIQeWmkBKa-3" style="edgeStyle=orthogonalEdgeStyle;rounded=0;orthogonalLoop=1;jettySize=auto;html=1;entryX=0.5;entryY=0;entryDx=0;entryDy=0;fontFamily=宋体;" edge="1" parent="1" source="w5uutKhLg4fIQeWmkBKa-4" target="w5uutKhLg4fIQeWmkBKa-6">
          <mxGeometry relative="1" as="geometry" />
        </mxCell>
        <mxCell id="w5uutKhLg4fIQeWmkBKa-4" value="&lt;font face=&quot;Times New Roman&quot; style=&quot;font-size: 28px;&quot;&gt;IDE/API&lt;/font&gt;" style="rounded=0;whiteSpace=wrap;html=1;fillColor=none;strokeWidth=2.5;fontFamily=宋体;fontSize=33;" vertex="1" parent="1">
          <mxGeometry x="170" y="60" width="220" height="50" as="geometry" />
        </mxCell>
        <mxCell id="w5uutKhLg4fIQeWmkBKa-6" value="&lt;span style=&quot;font-size: 28px;&quot;&gt;&lt;font face=&quot;Times New Roman&quot;&gt;Java&lt;/font&gt;、&lt;font face=&quot;Times New Roman&quot;&gt;C++&lt;/font&gt;分析&lt;/span&gt;" style="rounded=0;whiteSpace=wrap;html=1;fillColor=none;strokeWidth=2.5;fontFamily=宋体;fontSize=33;" vertex="1" parent="1">
          <mxGeometry x="170" y="230" width="220" height="50" as="geometry" />
        </mxCell>
      </root>
    </mxGraphModel>
  </diagram>
</mxfile>
